<?xml version="1.0" encoding="UTF-8" standalone="no"?>
<!-- Created with Inkscape (http://www.inkscape.org/) -->

<svg
   width="210mm"
   height="297mm"
   viewBox="0 0 210 297"
   version="1.1"
   id="svg1"
   xml:space="preserve"
   inkscape:version="1.4.3 (0d15f75, 2025-12-25)"
   sodipodi:docname="overlay_back.svg"
   xmlns:inkscape="http://www.inkscape.org/namespaces/inkscape"
   xmlns:sodipodi="http://sodipodi.sourceforge.net/DTD/sodipodi-0.dtd"
   xmlns="http://www.w3.org/2000/svg"
   xmlns:svg="http://www.w3.org/2000/svg"><sodipodi:namedview
     id="namedview1"
     pagecolor="#ffffff"
     bordercolor="#000000"
     borderopacity="0.25"
     inkscape:showpageshadow="2"
     inkscape:pageopacity="0.0"
     inkscape:pagecheckerboard="0"
     inkscape:deskcolor="#d1d1d1"
     inkscape:document-units="mm"
     inkscape:zoom="1.4823793"
     inkscape:cx="298.5066"
     inkscape:cy="283.66559"
     inkscape:window-width="1440"
     inkscape:window-height="842"
     inkscape:window-x="0"
     inkscape:window-y="123"
     inkscape:window-maximized="1"
     inkscape:current-layer="svg1" /><defs
     id="defs1" /><path
     style="opacity:0.182186;fill:none;fill-opacity:1;fill-rule:evenodd;stroke:#000000;stroke-width:0.79375;stroke-miterlimit:3.3;stroke-dasharray:none;paint-order:stroke markers fill"
     d="m 101.11208,43.728965 -0.26773,58.543265 -1.517127,-2.23107 -0.981671,-2.141822 -5.17608,-8.567306 -1.963344,-5.176084 -0.803185,-2.231069 -4.105166,-11.958535 1.60637,-1.427882 -0.446215,-0.981673 -8.299579,-5.80078 -0.267729,-0.178486 2.231069,-0.446214 0.803186,-0.535456 3.21274,-1.517129 1.874099,-0.98167 2.498799,-1.249399 1.874097,-1.249397 2.766528,-3.21274 1.96334,-3.034255 1.517127,-3.301984 0.713943,-1.60637 z"
     id="traps_l"
     inkscape:label="traps_l"
     inkscape:highlight-color="#020407" /><path
     style="opacity:0.442;fill:none;fill-opacity:1;fill-rule:evenodd;stroke:#000000;stroke-width:0.3177646;stroke-miterlimit:3.3;stroke-dasharray:none;paint-order:markers fill stroke;stroke-opacity:1;stroke-linecap:round;stroke-linejoin:miter"
     d="m 101.74333,43.996693 0.26773,58.543267 1.51713,-2.23107 0.98167,-2.141824 5.17608,-8.567306 1.96335,-5.176084 0.80318,-2.231069 4.10517,-11.958535 -1.60637,-1.427882 0.44621,-0.981673 8.29958,-5.80078 0.26773,-0.178486 -2.23107,-0.446214 -0.80318,-0.535456 -3.21274,-1.517129 -1.8741,-0.98167 -2.4988,-1.249399 -1.8741,-1.249397 -2.76653,-3.21274 -1.96334,-3.034255 -1.51712,-3.301984 -0.71395,-1.60637 z"
     id="traps_r"
     inkscape:label="traps_r"
     inkscape:highlight-color="#020407" /><path
     style="opacity:0.442;fill:none;fill-opacity:1;fill-rule:evenodd;stroke:#000000;stroke-width:0.317765;stroke-linecap:round;stroke-linejoin:miter;stroke-miterlimit:3.3;stroke-dasharray:none;stroke-opacity:1;paint-order:markers fill stroke"
     d="m 78.444409,61.666767 -3.391225,2.141826 -1.517126,1.160156 -0.981671,1.160155 -0.803185,0.892429 -1.070914,1.2494 -0.713944,1.427885 -0.713941,1.784855 -0.535456,1.784855 -1.517128,5.08684 -0.08924,0.713941 2.052582,-0.892426 2.498799,-1.160156 2.85577,-1.070914 1.249399,-0.446215 1.2494,-0.803185 1.517126,-0.6247 1.517126,-0.892426 2.23107,-1.517129 1.338644,-1.070914 2.855769,-1.338641 0.713941,-0.892429 -0.98167,-1.338641 -1.517126,-0.713941 z"
     id="rear_delts_l"
     inkscape:label="rear_delts_l" /><path
     style="opacity:0.442;fill:none;fill-opacity:1;fill-rule:evenodd;stroke:#000000;stroke-width:0.317765;stroke-linecap:round;stroke-linejoin:miter;stroke-miterlimit:3.3;stroke-dasharray:none;stroke-opacity:1;paint-order:markers fill stroke"
     d="m 124.3231,61.577524 3.39122,2.141826 1.51713,1.160156 0.98167,1.160155 0.80318,0.892429 1.07092,1.2494 0.71394,1.427885 0.71394,1.784855 0.53546,1.784855 1.51713,5.08684 0.0892,0.713941 -2.05259,-0.892426 -2.4988,-1.160156 -2.85577,-1.070914 -1.24939,-0.446215 -1.2494,-0.803185 -1.51713,-0.6247 -1.51713,-0.892426 -2.23107,-1.517129 -1.33864,-1.070914 -2.85577,-1.338641 -0.71394,-0.892429 0.98167,-1.338641 1.51713,-0.713941 z"
     id="rear_delts_r"
     inkscape:label="rear_delts_r" /><path
     style="opacity:0.442;fill:none;fill-opacity:1;fill-rule:evenodd;stroke:#000000;stroke-width:0.317765;stroke-linecap:round;stroke-linejoin:miter;stroke-miterlimit:3.3;stroke-dasharray:none;stroke-opacity:1;paint-order:markers fill stroke"
     d="m 85.940804,69.966344 -5.44381,2.766529 -2.23107,1.874096 -0.446212,3.569714 -0.08924,2.766525 v 2.588041 l 0.803185,6.246995 0.535456,3.21274 0.98167,3.034255 1.2494,2.588043 1.338643,2.588038 5.265325,7.58564 2.409553,2.94501 2.052586,2.76652 1.070914,2.05259 1.874097,2.85577 1.070914,-3.30198 0.892425,-2.94502 1.517126,-4.1944 1.695614,-6.69322 -8.121092,-14.189598 -3.123496,-9.459735 z"
     id="lats_l"
     inkscape:label="lats_l"
     sodipodi:nodetypes="ccccccccccccccccccccccc" /><path
     style="opacity:0.442;fill:none;fill-opacity:1;fill-rule:evenodd;stroke:#000000;stroke-width:0.317765;stroke-linecap:round;stroke-linejoin:miter;stroke-miterlimit:3.3;stroke-dasharray:none;stroke-opacity:1;paint-order:markers fill stroke"
     d="m 66.932089,78.801382 -2.231067,3.123497 -0.981673,1.784855 -1.070911,2.945013 -0.267729,1.784856 -0.446215,1.517126 0.6247,0.08924 0.98167,-0.803185 0.08924,1.160155 -0.535458,2.498799 -3.212741,9.013522 5.533054,-4.283655 0.446215,3.926685 0.713941,0.98167 0.535458,0.0893 1.963341,-7.317917 1.2494,-2.58804 2.498796,-2.141828 3.748199,-5.711537 0.892426,-3.926684 0.535458,-6.693209 z"
     id="triceps_l"
     inkscape:label="triceps_l" /><path
     style="opacity:0.442;fill:none;fill-opacity:1;fill-rule:evenodd;stroke:#000000;stroke-width:0.317765;stroke-linecap:round;stroke-linejoin:miter;stroke-miterlimit:3.3;stroke-dasharray:none;stroke-opacity:1;paint-order:markers fill stroke"
     d="m 136.03537,78.801382 2.23106,3.123497 0.98168,1.784855 1.07091,2.945013 0.26773,1.784856 0.44621,1.517126 -0.6247,0.08924 -0.98167,-0.803185 -0.0892,1.160155 0.53546,2.498799 3.21274,9.013522 -5.53305,-4.283655 -0.44622,3.926685 -0.71394,0.98167 -0.53546,0.0893 -1.96334,-7.317917 -1.2494,-2.58804 -2.49879,-2.141828 -3.7482,-5.711537 -0.89243,-3.926684 -0.53546,-6.693209 z"
     id="triceps_r"
     inkscape:label="triceps_r" /><path
     style="opacity:0.442;fill:none;fill-opacity:1;fill-rule:evenodd;stroke:#000000;stroke-width:0.317765;stroke-linecap:round;stroke-linejoin:miter;stroke-miterlimit:3.3;stroke-dasharray:none;stroke-opacity:1;paint-order:markers fill stroke"
     d="m 59.792668,101.82602 -1.96334,3.1235 -1.8741,2.23107 -0.892429,1.51713 -2.141826,11.6908 -2.052584,8.21034 -0.08924,1.33864 2.855769,1.42788 2.052585,-0.17848 1.070914,-1.51713 9.28125,-14.10036 1.427885,-4.10517 1.60637,-5.97926 0.803185,-5.35457 -2.498799,2.4988 -0.356971,2.76652 -2.141825,1.42789 -0.803185,0.89242 -0.803185,-1.24939 -2.052585,0.71394 0.267727,-1.78486 -2.588041,1.16016 0.178485,-3.56971 z"
     id="forearms_l"
     inkscape:label="forearms_l" /><path
     style="opacity:0.442;fill:none;fill-opacity:1;fill-rule:evenodd;stroke:#000000;stroke-width:0.317765;stroke-linecap:round;stroke-linejoin:miter;stroke-miterlimit:3.3;stroke-dasharray:none;stroke-opacity:1;paint-order:markers fill stroke"
     d="m 143.744,101.91526 1.96334,3.1235 1.8741,2.23107 0.89243,1.51713 2.14183,11.6908 2.05258,8.21034 0.0892,1.33864 -2.85577,1.42788 -2.05258,-0.17848 -1.07092,-1.51713 -9.28125,-14.10036 -1.42788,-4.10517 -1.60637,-5.97926 -0.80319,-5.35457 2.4988,2.4988 0.35697,2.76652 2.14183,1.42789 0.80318,0.89242 0.80319,-1.24939 2.05258,0.71394 -0.26773,-1.78486 2.58805,1.16016 -0.17849,-3.56971 z"
     id="forearms_r"
     inkscape:label="forearms_r" /><path
     style="opacity:0.442;fill:none;fill-opacity:1;fill-rule:evenodd;stroke:#000000;stroke-width:0.317765;stroke-linecap:round;stroke-linejoin:miter;stroke-miterlimit:3.3;stroke-dasharray:none;stroke-opacity:1;paint-order:markers fill stroke"
     d="m 117.36517,70.055587 5.44381,2.766529 2.23107,1.874096 0.44621,3.569714 0.0892,2.766525 v 2.588041 l -0.80318,6.246995 -0.53546,3.21274 -0.98167,3.034255 -1.2494,2.588043 -1.33864,2.588035 -5.26533,7.58564 -2.40955,2.94501 -2.05259,2.76652 -1.07091,2.05259 -1.8741,2.85577 -1.07091,-3.30198 -0.89243,-2.94502 -1.51712,-4.1944 -1.69562,-6.69322 8.1211,-14.189595 3.12349,-9.459735 z"
     id="lats_r"
     inkscape:label="lats_r"
     sodipodi:nodetypes="ccccccccccccccccccccccc" /><path
     style="opacity:0.442;fill:none;fill-opacity:1;fill-rule:evenodd;stroke:#000000;stroke-width:0.317765;stroke-linecap:round;stroke-linejoin:miter;stroke-miterlimit:3.3;stroke-dasharray:none;stroke-opacity:1;paint-order:markers fill stroke"
     d="m 100.30889,102.71845 -6.068507,19.36568 6.425477,8.1211 0.71395,-27.933 z"
     id="lower_back_l"
     inkscape:label="lower_back_l" /><path
     style="opacity:0.442;fill:none;fill-opacity:1;fill-rule:evenodd;stroke:#000000;stroke-width:0.317765;stroke-linecap:round;stroke-linejoin:miter;stroke-miterlimit:3.3;stroke-dasharray:none;stroke-opacity:1;paint-order:markers fill stroke"
     d="m 102.79605,102.62921 6.0685,19.36568 -6.42547,8.1211 -0.71395,-27.933 z"
     id="lower_back_r"
     inkscape:label="lower_back_r" /><path
     style="opacity:0.442;fill:none;fill-opacity:1;fill-rule:evenodd;stroke:#000000;stroke-width:0.317765;stroke-linecap:round;stroke-linejoin:miter;stroke-miterlimit:3.3;stroke-dasharray:none;stroke-opacity:1;paint-order:markers fill stroke"
     d="m 107.26983,124.22596 3.21274,-0.0892 2.14183,0.80318 2.32031,1.2494 2.23107,2.4988 1.33864,2.4988 1.60637,3.21274 0.6247,2.94501 0.80319,0.80319 -1.42789,-17.22386 -1.69561,-1.16016 -1.42789,0.0892 -1.87409,-0.17848 -1.16016,0.35697 -1.51713,0.44621 -1.2494,0.44622 -0.98167,0.44621 -0.71394,0.6247 z"
     id="glute_med_r"
     inkscape:label="glute_med_r" /><path
     style="opacity:0.442;fill:none;fill-opacity:1;fill-rule:evenodd;stroke:#000000;stroke-width:0.317765;stroke-linecap:round;stroke-linejoin:miter;stroke-miterlimit:3.3;stroke-dasharray:none;stroke-opacity:1;paint-order:markers fill stroke"
     d="m 96.271016,124.40445 -3.21274,-0.0892 -2.14183,0.80318 -2.32031,1.2494 -2.23107,2.4988 -1.33864,2.4988 -1.60637,3.21274 -0.6247,2.94501 -0.80319,0.80319 1.42789,-17.22386 1.69561,-1.16016 1.42789,0.0892 1.87409,-0.17848 1.16016,0.35697 1.51713,0.44621 1.2494,0.44622 0.98167,0.44621 0.71394,0.6247 z"
     id="glute_med_l"
     inkscape:label="glute_med_l" /><path
     style="opacity:0.442;fill:none;fill-opacity:1;fill-rule:evenodd;stroke:#000000;stroke-width:0.317765;stroke-linecap:round;stroke-linejoin:miter;stroke-miterlimit:3.3;stroke-dasharray:none;stroke-opacity:1;paint-order:markers fill stroke"
     d="m 107.18059,124.22596 -0.44622,0.80319 -4.01592,5.71153 -0.53546,3.56972 -0.26773,9.63822 v 0.98167 l 2.40956,2.14183 5.53305,2.49879 2.67729,-0.0892 3.65895,-0.6247 1.42788,-1.42788 2.05259,-2.4988 1.16015,-3.83744 0.6247,-2.85577 -0.89242,-1.16016 -0.26773,-1.51712 -0.98167,-3.1235 -2.14183,-3.65896 -2.85577,-3.03425 -3.7482,-1.60637 z"
     id="glutes_max_r"
     inkscape:label="glutes_max_r" /><path
     style="opacity:0.442;fill:none;fill-opacity:1;fill-rule:evenodd;stroke:#000000;stroke-width:0.317765;stroke-linecap:round;stroke-linejoin:miter;stroke-miterlimit:3.3;stroke-dasharray:none;stroke-opacity:1;paint-order:markers fill stroke"
     d="m 96.126603,124.58293 0.44622,0.80319 4.015917,5.71153 0.53546,3.56972 0.26773,9.63822 v 0.98167 l -2.409557,2.14183 -5.53305,2.49879 -2.67729,-0.0892 -3.65895,-0.6247 -1.42788,-1.42788 -2.05259,-2.4988 -1.16015,-3.83744 -0.6247,-2.85577 0.89242,-1.16016 0.26773,-1.51712 0.98167,-3.1235 2.14183,-3.65896 2.85577,-3.03425 3.7482,-1.60637 z"
     id="glute_max_l"
     inkscape:label="glute_max_l" /><path
     style="opacity:0.442;fill:none;fill-opacity:1;fill-rule:evenodd;stroke:#000000;stroke-width:0.317765;stroke-linecap:round;stroke-linejoin:miter;stroke-miterlimit:3.3;stroke-dasharray:none;stroke-opacity:1;paint-order:markers fill stroke"
     d="m 102.62921,146.0012 -0.17849,14.10036 1.60637,8.7458 1.78486,9.99519 v 4.64062 l 1.07091,6.78245 1.78486,6.42548 6.06851,-18.20552 0.53545,4.28365 1.07092,3.03425 1.42788,4.64063 2.32031,4.64062 0.35697,-9.28125 0.53546,-4.46213 1.60637,-7.4964 2.14183,-8.21034 0.71394,-6.96093 0.17849,-6.78245 -0.35698,-5.35457 -0.89242,-5.17608 -1.78486,7.85336 -1.96334,5.17608 -0.89243,6.06851 -0.71394,1.07092 -0.53546,-3.03426 -0.71394,-4.10517 -2.67728,-3.39122 -3.03426,-1.2494 -2.14183,-0.89243 -5.35456,-1.42788 z"
     id="hamstrings_r"
     inkscape:label="hamstrings_r" /><path
     style="opacity:0.442;fill:none;fill-opacity:1;fill-rule:evenodd;stroke:#000000;stroke-width:0.317765;stroke-linecap:round;stroke-linejoin:miter;stroke-miterlimit:3.3;stroke-dasharray:none;stroke-opacity:1;paint-order:markers fill stroke"
     d="m 100.66582,146.53666 0.17849,14.10036 -1.606365,8.7458 -1.78486,9.99519 v 4.64062 l -1.07091,6.78245 -1.78486,6.42548 -6.06851,-18.20552 -0.53545,4.28365 -1.07092,3.03425 -1.42788,4.64063 -2.32031,4.64062 -0.35697,-9.28125 -0.53546,-4.46213 -1.60637,-7.4964 -2.14183,-8.21034 -0.71394,-6.96093 -0.17849,-6.78245 0.35698,-5.35457 0.89242,-5.17608 1.78486,7.85336 1.96334,5.17608 0.89243,6.06851 0.71394,1.07092 0.53546,-3.03426 0.71394,-4.10517 2.67728,-3.39122 3.03426,-1.2494 2.14183,-0.89243 5.35456,-1.42788 z"
     id="hamstrings_l"
     inkscape:label="hamstrings_l" /><path
     style="opacity:0.442;fill:none;fill-opacity:1;fill-rule:evenodd;stroke:#000000;stroke-width:0.317765;stroke-linecap:round;stroke-linejoin:miter;stroke-miterlimit:3.3;stroke-dasharray:none;stroke-opacity:1;paint-order:markers fill stroke"
     d="m 114.23077,178.66406 -4.9976,16.42067 -0.53545,1.96335 -1.60637,9.10276 -0.35698,3.7482 -0.17848,3.21274 1.07091,4.81911 0.71394,2.14182 1.60637,12.13702 0.35698,1.78486 0.89242,6.78245 v 2.4988 l 0.71395,0.17848 0.89242,-0.71394 0.71395,-0.53546 3.03425,-11.24459 3.39123,-13.20793 2.4988,-7.31791 v -6.60396 l -2.14183,-9.28125 -2.85577,-5.35457 z"
     id="calves_r"
     inkscape:label="calves_r" /><path
     style="opacity:0.442;fill:none;fill-opacity:1;fill-rule:evenodd;stroke:#000000;stroke-width:0.317765;stroke-linecap:round;stroke-linejoin:miter;stroke-miterlimit:3.3;stroke-dasharray:none;stroke-opacity:1;paint-order:markers fill stroke"
     d="m 89.063337,179.378 4.9976,16.42067 0.53545,1.96335 1.60637,9.10276 0.35698,3.7482 0.17848,3.21274 -1.07091,4.81911 -0.71394,2.14182 -1.60637,12.13702 -0.35698,1.78486 -0.89242,6.78245 v 2.4988 l -0.71395,0.17848 -0.89242,-0.71394 -0.71395,-0.53546 -3.03425,-11.24459 -3.39123,-13.20793 -2.4988,-7.31791 v -6.60396 l 2.14183,-9.28125 2.85577,-5.35457 z"
     id="calves_l"
     inkscape:label="calves_l" /></svg>
