<?xml version="1.0" encoding="UTF-8" standalone="no"?>
<!-- Created with Inkscape (http://www.inkscape.org/) -->

<svg
   width="111"
   height="202"
   viewBox="85 90 111 202"
   version="1.1"
   id="svg1"
   xml:space="preserve"
   sodipodi:docname="overlay_front.svg"
   inkscape:version="1.4.3 (0d15f75, 2025-12-25)"
   xmlns:inkscape="http://www.inkscape.org/namespaces/inkscape"
   xmlns:sodipodi="http://sodipodi.sourceforge.net/DTD/sodipodi-0.dtd"
   xmlns:xlink="http://www.w3.org/1999/xlink"
   xmlns="http://www.w3.org/2000/svg"
   xmlns:svg="http://www.w3.org/2000/svg"><sodipodi:namedview
     id="namedview1"
     pagecolor="#ffffff"
     bordercolor="#000000"
     borderopacity="0.25"
     inkscape:showpageshadow="2"
     inkscape:pageopacity="0.0"
     inkscape:pagecheckerboard="0"
     inkscape:deskcolor="#d1d1d1"
     inkscape:document-units="px"
     inkscape:zoom="0.74118967"
     inkscape:cx="330.54967"
     inkscape:cy="618.60009"
     inkscape:window-width="1440"
     inkscape:window-height="842"
     inkscape:window-x="0"
     inkscape:window-y="123"
     inkscape:window-maximized="0"
     inkscape:current-layer="svg1" /><defs
     id="defs1"><linearGradient
       id="linearGradient2"
       inkscape:collect="always"><stop
         style="stop-color:#000000;stop-opacity:1;"
         offset="1"
         id="stop2" /><stop
         style="stop-color:#000000;stop-opacity:0;"
         offset="1"
         id="stop3" /></linearGradient><linearGradient
       inkscape:collect="always"
       xlink:href="#linearGradient2"
       id="linearGradient3"
       x1="129.93746"
       y1="154.3454"
       x2="150.64179"
       y2="154.3454"
       gradientUnits="userSpaceOnUse" /></defs><path
     style="display:inline;fill:none;fill-opacity:1;fill-rule:evenodd;stroke:url(#linearGradient3);stroke-width:0.26458333;stroke-linecap:butt;stroke-linejoin:miter;stroke-dasharray:none;paint-order:stroke markers fill"
     d="m 148.67849,157.95974 1.16015,1.87409 v 2.23107 l -0.98167,4.46214 -0.35697,1.33864 -4.28365,9.01353 -0.6247,0.6247 -0.89243,0.44621 h -2.32031 l -2.94502,-0.44621 -1.87409,-3.03426 -3.30199,-6.96094 -1.16015,-4.55138 0.0892,-2.23107 0.53546,-3.21274 -0.98168,-3.21274 0.44622,-4.9976 -1.07091,-2.40955 v -2.14183 l 1.24939,-3.48047 -1.24939,-1.07091 -0.17849,-1.51713 0.26773,-2.4988 1.2494,-1.51712 6.15775,-3.7482 0.89243,-0.17849 0.98167,0.71395 1.33864,-0.53546 1.8741,-0.17849 3.56971,1.96335 3.48047,2.67728 0.89243,1.16016 v 2.49879 l -0.89243,2.05259 -0.26773,0.26773 0.53546,1.33864 0.44621,3.92668 -0.0892,1.2494 -1.16016,1.42788 0.71394,1.33865 0.26773,3.92668 -0.44621,1.8741 z"
     id="abs" /><path
     style="fill:none;fill-opacity:1;fill-rule:evenodd;stroke-width:0.26458333;stroke-linecap:square;stroke-linejoin:round;stroke-dasharray:none;stroke:#000000;stroke-opacity:1"
     d="m 137.52314,107.53756 -21.50752,8.38882 0.26773,0.53546 5.80078,-1.2494 4.19442,-0.26773 3.56971,0.0892 3.12349,0.44622 1.69562,0.98167 2.58804,0.44621 1.16015,0.89243 1.2494,0.53546 -0.17848,-5.44381 -0.44622,-2.40956 -0.53545,-1.96334 z"
     id="upper_chest_l"
     inkscape:label="upper_chest_l" /><path
     style="fill:none;fill-opacity:1;fill-rule:evenodd;stroke:#000000;stroke-width:0.264583;stroke-linecap:square;stroke-linejoin:round;stroke-dasharray:none;stroke-opacity:1"
     d="m 132.43629,94.552732 3.92669,10.084428 -9.81671,-1.42788 -5.89003,-1.33864 z"
     id="traps_l"
     inkscape:label="traps_l" /><path
     style="fill:none;fill-opacity:1;fill-rule:evenodd;stroke:#000000;stroke-width:0.264583;stroke-linecap:square;stroke-linejoin:round;stroke-dasharray:none;stroke-opacity:1"
     d="m 148.67849,94.775839 -3.92669,10.084431 9.81671,-1.42788 5.89003,-1.33864 z"
     id="traps_r"
     inkscape:label="traps_r" /><path
     style="fill:none;fill-opacity:1;fill-rule:evenodd;stroke:#000000;stroke-width:0.264583;stroke-linecap:square;stroke-linejoin:round;stroke-dasharray:none;stroke-opacity:1"
     d="m 141.04822,118.91601 4.59601,-2.05258 4.55138,-1.2494 3.92669,-0.53546 4.86373,0.0893 5.75616,1.2494 0.2231,0.0446 -1.96334,2.05258 -17.35772,11.55694 -1.74024,-0.89243 -1.51712,-1.38326 -0.80319,-1.60637 -0.44621,-1.8741 -0.13386,-2.05258 z"
     id="mid_chest_r"
     inkscape:label="mid_chest_r" /><path
     style="fill:none;fill-opacity:1;fill-rule:evenodd;stroke:#000000;stroke-width:0.264583;stroke-linecap:square;stroke-linejoin:round;stroke-dasharray:none;stroke-opacity:1"
     d="m 139.97731,119.04987 -4.59601,-2.05258 -4.55138,-1.2494 -3.92669,-0.53546 -4.86373,0.0893 -5.75616,1.2494 -0.2231,0.0446 1.96334,2.05258 17.35772,11.55694 1.74024,-0.89243 1.51712,-1.38326 0.80319,-1.60637 0.44621,-1.8741 0.13386,-2.05258 z"
     id="mid_chest_l"
     inkscape:label="mid_chest_l" /><path
     style="fill:none;fill-opacity:1;fill-rule:evenodd;stroke:#000000;stroke-width:0.264583;stroke-linecap:square;stroke-linejoin:round;stroke-dasharray:none;stroke-opacity:1"
     d="m 145.91196,130.16061 1.33864,0.49083 1.07091,0.0892 1.69562,0.0892 3.21274,-0.26773 2.58804,-0.6247 1.69561,-0.84781 2.32031,-2.05258 2.72191,-3.16812 0.71394,-2.23107 0.93705,-2.72191 0.0892,-0.93704 z"
     id="lower_chest_r"
     inkscape:label="lower_chest_r" /><path
     style="fill:none;fill-opacity:1;fill-rule:evenodd;stroke:#000000;stroke-width:0.264583;stroke-linecap:square;stroke-linejoin:round;stroke-dasharray:none;stroke-opacity:1"
     d="m 135.15817,130.20523 -1.33864,0.49083 -1.07091,0.0892 -1.69562,0.0892 -3.21274,-0.26773 -2.58804,-0.6247 -1.69561,-0.84781 -2.32031,-2.05258 -2.72191,-3.16812 -0.71394,-2.23107 -0.93705,-2.72191 -0.0892,-0.93704 z"
     id="lower_chest_l"
     inkscape:label="lower_chest_l" /><path
     style="fill:none;fill-opacity:1;fill-rule:evenodd;stroke:#000000;stroke-width:0.264583;stroke-linecap:square;stroke-linejoin:round;stroke-dasharray:none;stroke-opacity:1"
     d="m 151.76555,104.62673 4.98941,3.00007 2.36493,1.69562 1.65099,1.78485 1.16016,1.38326 1.78485,2.09721 0.89243,0.89243 0.31235,0.75856 1.82948,0.89243 2.18645,1.33864 1.96334,1.47251 0.44621,0.40159 0.75857,0.80318 0.66932,1.2494 0.17848,0.31235 -0.31235,-6.51472 -1.2494,-4.55138 -2.45417,-4.10517 -3.07888,-2.81115 -1.91872,-0.98167 -1.8741,-0.80318 -0.75856,-0.13387 -2.90039,0.93705 -1.16016,0.0892 -1.60637,0.22311 -1.74023,0.0892 z"
     id="front_delts_r"
     inkscape:label="front_delts_r" /><path
     style="fill:none;fill-opacity:1;fill-rule:evenodd;stroke:#000000;stroke-width:0.264583;stroke-linecap:square;stroke-linejoin:round;stroke-dasharray:none;stroke-opacity:1"
     d="m 129.31282,104.71597 -4.98941,3.00007 -2.36493,1.69562 -1.65099,1.78485 -1.16016,1.38326 -1.78485,2.09721 -0.89243,0.89243 -0.31235,0.75856 -1.82948,0.89243 -2.18645,1.33864 -1.96334,1.47251 -0.44621,0.40159 -0.75857,0.80318 -0.66932,1.2494 -0.17848,0.31235 0.31235,-6.51472 1.2494,-4.55138 2.45417,-4.10517 3.07888,-2.81115 1.91872,-0.98167 1.8741,-0.80318 0.75856,-0.13387 2.90039,0.93705 1.16016,0.0892 1.60637,0.22311 1.74023,0.0892 z"
     id="front_delts_l"
     inkscape:label="front_delts_l" /><path
     style="fill:none;fill-opacity:1;fill-rule:evenodd;stroke:#000000;stroke-width:0.264583;stroke-linecap:square;stroke-linejoin:round;stroke-dasharray:none;stroke-opacity:1"
     d="m 161.35096,102.27223 3.52509,1.60637 1.69561,1.16016 1.33864,1.20478 1.2494,1.38326 0.84781,1.29402 0.84781,1.2494 0.44621,1.20478 0.35697,0.93705 0.49084,1.69561 0.40159,1.33864 0.17848,1.60637 0.0892,2.4988 0.17848,2.40956 0.0446,0.66932 -0.0893,0.2231 0.66932,0.71395 0.35697,0.0892 0.89243,-1.29402 0.49084,-1.42788 0.26773,-1.16016 0.49083,-2.67728 0.17849,-2.40956 -0.40159,-2.36493 -1.29403,-3.03426 -1.65099,-2.32031 -1.69561,-1.78486 -2.7372,-1.62408 -2.95012,-0.99389 -1.46717,-0.22086 -1.68804,-0.26819 -1.16742,-0.23665 -0.93079,-0.37862 0.91501,0.82035 z"
     id="side_delts_r"
     inkscape:label="side_delts_r" /><path
     style="fill:none;fill-opacity:1;fill-rule:evenodd;stroke:#000000;stroke-width:0.264583;stroke-linecap:square;stroke-linejoin:round;stroke-dasharray:none;stroke-opacity:1"
     d="m 119.54314,102.58775 -3.52509,1.60637 -1.69561,1.16016 -1.33864,1.20478 -1.2494,1.38326 -0.84781,1.29402 -0.84781,1.2494 -0.44621,1.20478 -0.35697,0.93705 -0.49084,1.69561 -0.40159,1.33864 -0.17848,1.60637 -0.0892,2.4988 -0.17848,2.40956 -0.0446,0.66932 0.0893,0.2231 -0.66932,0.71395 -0.35697,0.0892 -0.89243,-1.29402 -0.49084,-1.42788 -0.26773,-1.16016 -0.49083,-2.67728 -0.17849,-2.40956 0.40159,-2.36493 1.29403,-3.03426 1.65099,-2.32031 1.69561,-1.78486 2.7372,-1.62408 2.95012,-0.99389 1.46717,-0.22086 1.68804,-0.26819 1.16742,-0.23665 0.93079,-0.37862 -0.91501,0.82035 z"
     id="side_delts_l"
     inkscape:label="side_delts_l" /><path
     style="fill:none;fill-opacity:1;fill-rule:evenodd;stroke:#000000;stroke-width:0.264583;stroke-linecap:square;stroke-linejoin:round;stroke-dasharray:none;stroke-opacity:1"
     d="m 164.67036,118.69896 1.00967,-0.0315 1.98778,0.82036 1.38829,0.88345 2.49261,2.12977 1.94046,2.42951 1.2463,2.16132 1.13588,2.66615 1.43562,4.18065 1.1563,4.61081 0.15617,3.07888 0.0223,1.49481 -0.17848,0.51315 -0.60414,1.31403 -0.7888,0.85191 -0.34707,0.12621 -4.19643,-3.7547 -1.83002,-2.05089 -1.26208,-2.33485 -0.25242,-0.88346 -1.83002,-4.59083 -1.35674,-3.84936 -1.19898,-4.44884 -0.64682,-2.87124 -0.14198,-1.05699 0.18931,-0.61527 0.20509,-0.36285 z"
     id="biceps_r"
     inkscape:label="biceps_r" /><path
     style="fill:none;fill-opacity:1;fill-rule:evenodd;stroke:#000000;stroke-width:0.264583;stroke-linecap:square;stroke-linejoin:round;stroke-dasharray:none;stroke-opacity:1"
     d="m 116.22313,118.25275 -1.00967,-0.0315 -1.98778,0.82036 -1.38829,0.88345 -2.49261,2.12977 -1.94046,2.42951 -1.2463,2.16132 -1.13588,2.66615 -1.43562,4.18065 -1.1563,4.61081 -0.15617,3.07888 -0.0223,1.49481 0.17848,0.51315 0.60414,1.31403 0.7888,0.85191 0.34707,0.12621 4.19643,-3.7547 1.83002,-2.05089 1.26208,-2.33485 0.25242,-0.88346 1.83002,-4.59083 1.35674,-3.84936 1.19898,-4.44884 0.64682,-2.87124 0.14198,-1.05699 -0.18931,-0.61527 -0.20509,-0.36285 z"
     id="biceps_l"
     inkscape:label="biceps_l" /><path
     id="triceps_l"
     style="fill:none;fill-opacity:1;fill-rule:evenodd;stroke:#000000;stroke-width:0.264583;stroke-linecap:square;stroke-linejoin:round;stroke-dasharray:none;stroke-opacity:1"
     d="M 105.16309 121.00243 L 103.52236 122.95839 L 101.21915 127.72295 L 100.30396 130.94136 L 99.925684 133.30763 L 99.799077 135.35866 L 99.830599 137.157 L 99.988729 138.38742 L 100.46209 139.52327 L 101.47133 142.58406 L 101.78707 142.86777 L 102.00773 141.00638 L 102.6387 136.68365 L 104.02724 131.69842 L 105.54188 128.00666 L 106.6462 125.67192 L 107.27717 124.47302 L 107.46631 123.71596 L 106.80382 123.21108 L 106.01523 122.20133 L 105.16309 121.00243 z M 116.04873 124.59911 L 114.408 129.83704 L 112.95641 134.06469 L 111.82057 137.22005 L 111.00046 138.86078 L 110.90589 139.20804 L 111.78904 138.22981 L 113.71399 135.45323 L 115.13354 133.02341 L 116.20634 130.46801 L 116.74275 128.57458 L 116.83731 127.09198 L 116.61666 125.45126 L 116.04873 124.59911 z "
     inkscape:label="triceps_l" /><path
     id="triceps_r"
     style="fill:none;fill-opacity:1;fill-rule:evenodd;stroke:#000000;stroke-width:0.264583;stroke-linecap:square;stroke-linejoin:round;stroke-dasharray:none;stroke-opacity:1"
     d="m 175.58715,121.25485 1.64073,1.95596 2.30321,4.76456 0.91519,3.21841 0.37827,2.36627 0.12661,2.05103 -0.0315,1.79834 -0.15813,1.23042 -0.47336,1.13585 -1.00924,3.06079 -0.31574,0.28371 -0.22066,-1.86139 -0.63097,-4.32273 -1.38854,-4.98523 -1.51464,-3.69176 -1.10432,-2.33474 -0.63097,-1.1989 -0.18914,-0.75706 0.66249,-0.50488 0.78859,-1.00975 z m -10.88564,3.59668 1.64073,5.23793 1.45159,4.22765 1.13584,3.15536 0.82011,1.64073 0.0946,0.34726 -0.88315,-0.97823 -1.92495,-2.77658 -1.41955,-2.42982 -1.0728,-2.5554 -0.53641,-1.89343 -0.0946,-1.4826 0.22065,-1.64072 z"
     inkscape:label="triceps_r" /><path
     id="forearms_r"
     style="fill:none;fill-opacity:1;fill-rule:evenodd;stroke:#000000;stroke-width:0.264583;stroke-linecap:square;stroke-linejoin:round;stroke-dasharray:none;stroke-opacity:1"
     d="M 181.17189 137.94559 L 180.22569 142.74168 L 179.97299 148.10569 L 180.22569 151.82846 L 181.42459 157.00334 L 184.3903 165.14341 L 185.90493 171.0123 L 185.7158 171.83292 L 185.93749 172.19414 L 187.09762 172.01534 L 189.01637 171.47997 L 190.84572 171.79262 L 191.2028 171.83706 L 191.29168 171.74766 L 189.39568 161.28421 L 188.23554 154.72492 L 187.74461 150.90965 L 187.54359 149.45961 L 187.11985 148.00905 L 186.18295 145.39888 L 184.55411 142.16393 L 183.08133 139.95528 L 182.36768 138.99565 L 181.17189 137.94559 z M 173.12638 144.80822 L 172.68455 144.84129 L 172.72951 147.83077 L 173.13104 150.41873 L 173.77802 153.14052 L 174.62603 155.05927 L 176.07608 158.13815 L 177.90542 160.99379 L 179.64588 163.60448 L 181.16259 166.17022 L 182.3899 168.33443 L 183.7278 170.69656 L 184.89518 172.40085 L 185.21092 172.55846 L 185.4631 172.4794 L 185.4476 172.22721 L 183.99601 167.87296 L 182.40282 162.99832 L 181.37704 159.41714 L 180.28874 156.05663 L 179.37355 152.85424 L 178.01704 149.74642 L 177.00728 147.96358 L 175.52417 146.3859 L 173.99403 145.13946 L 173.12638 144.80822 z "
     inkscape:label="forearms_r" /><path
     id="forearms_l"
     style="fill:none;fill-opacity:1;fill-rule:evenodd;stroke:#000000;stroke-width:0.264583;stroke-linecap:square;stroke-linejoin:round;stroke-dasharray:none;stroke-opacity:1"
     d="m 99.451575,138.83802 0.946195,4.79609 0.2527,5.36401 -0.2527,3.72277 -1.198895,5.17488 -2.96571,8.14007 -1.51463,5.86889 0.18913,0.82062 -0.22169,0.36122 -1.16013,-0.1788 -1.91875,-0.53537 -1.82935,0.31265 -0.35708,0.0444 -0.0889,-0.0894 1.896,-10.46345 1.16014,-6.55929 0.49093,-3.81527 0.20102,-1.45004 0.42374,-1.45056 0.9369,-2.61017 1.62884,-3.23495 1.47278,-2.20865 0.71365,-0.95963 z m 8.045505,6.86263 0.44183,0.0331 -0.045,2.98948 -0.40153,2.58796 -0.64698,2.72179 -0.84801,1.91875 -1.45005,3.07888 -1.82934,2.85564 -1.74046,2.61069 -1.516705,2.56574 -1.22731,2.16421 -1.3379,2.36213 -1.16738,1.70429 -0.31574,0.15761 -0.25218,-0.0791 0.0155,-0.25219 1.45159,-4.35425 1.59319,-4.87464 1.02578,-3.58118 1.088295,-3.36051 0.91519,-3.20239 1.35651,-3.10782 1.00976,-1.78284 1.48311,-1.57768 1.53014,-1.24644 z"
     inkscape:label="forearms_l" /><path
     style="fill:none;fill-opacity:1;fill-rule:evenodd;stroke:#000000;stroke-width:0.264583;stroke-linecap:square;stroke-linejoin:round;stroke-dasharray:none;stroke-opacity:1"
     d="m 121.28095,164.29597 -2.05259,7.40715 -0.89242,5.35457 -1.33865,7.22867 -0.53545,8.92428 0.44621,6.78245 0.35697,0.0892 0.53546,-3.30198 -0.17849,-2.94501 0.89243,-2.76653 0.35697,-2.4988 0.98167,-2.23107 0.53546,-2.23107 1.07091,-2.85577 1.51713,-3.74819 1.69561,-3.83744 1.60638,-3.03426 0.44621,-1.42788 -0.35697,-1.69562 -1.42789,-1.07091 -1.2494,-1.07091 z"
     id="hips_l"
     inkscape:label="hips_l"
     sodipodi:nodetypes="cccccccccccccccccccccc" /><path
     style="fill:none;fill-opacity:1;fill-rule:evenodd;stroke:#000000;stroke-width:0.264583;stroke-linecap:square;stroke-linejoin:round;stroke-dasharray:none;stroke-opacity:1"
     d="m 159.74459,163.76051 2.05259,7.40715 0.89242,5.35457 1.33865,7.22867 0.53545,8.92428 -0.44621,6.78245 -0.35697,0.0892 -0.53546,-3.30198 0.17849,-2.94501 -0.6247,-3.30199 -1.07091,-1.78485 -0.53546,-2.40956 -0.53546,-2.23107 -1.07091,-2.85577 -1.51713,-3.74819 -1.69561,-3.83744 -1.60638,-3.03426 -0.44621,-1.42788 0.35697,-1.69562 1.42789,-1.07091 1.2494,-1.07091 z"
     id="hips_r"
     inkscape:label="hips_r"
     sodipodi:nodetypes="cccccccccccccccccccccc" /><path
     style="fill:none;fill-opacity:1;fill-rule:evenodd;stroke:#000000;stroke-width:0.264583;stroke-linecap:square;stroke-linejoin:round;stroke-dasharray:none;stroke-opacity:1"
     d="m 126.1893,170.76607 -3.30198,6.91632 -2.4988,6.73783 -1.51713,5.13146 -0.93705,4.77449 -0.66932,5.17608 -0.26772,2.36494 0.40159,5.39918 0.53545,4.19442 0.84781,4.23903 1.65099,4.55138 1.16016,1.42788 1.8741,1.2494 0.75856,-1.02629 1.02629,-3.39122 0.98167,-0.53546 0.75857,0.0446 0.8478,0.66932 0.66932,0.84781 0.71395,2.18645 0.8478,1.74023 1.16016,2.05258 1.11553,1.0263 0.71395,0.35697 1.33864,-0.49084 1.16016,-2.63266 1.07091,-2.94501 0.2231,-1.69561 -0.2231,-3.25737 -0.0892,-3.30198 -1.33865,-7.00556 -2.63266,-8.79041 -2.94501,-9.50436 -1.60637,-6.8717 -1.2494,-8.25495 z"
     id="quads_l"
     inkscape:label="quads_l" /><path
     style="fill:none;fill-opacity:1;fill-rule:evenodd;stroke:#000000;stroke-width:0.264583;stroke-linecap:square;stroke-linejoin:round;stroke-dasharray:none;stroke-opacity:1"
     d="m 155.04902,170.76607 3.30198,6.91632 2.4988,6.73783 1.51713,5.13146 0.93705,4.77449 0.66932,5.17608 0.26772,2.36494 -0.40159,5.39918 -0.53545,4.19442 -0.84781,4.23903 -1.65099,4.55138 -1.16016,1.42788 -1.8741,1.2494 -0.75856,-1.02629 -1.02629,-3.39122 -0.98167,-0.53546 -0.75857,0.0446 -0.8478,0.66932 -0.66932,0.84781 -0.71395,2.18645 -0.8478,1.74023 -1.16016,2.05258 -1.11553,1.0263 -0.71395,0.35697 -1.33864,-0.49084 -1.16016,-2.63266 -1.07091,-2.94501 -0.2231,-1.69561 0.2231,-3.25737 0.0892,-3.30198 1.33865,-7.00556 2.63266,-8.79041 2.94501,-9.50436 1.60637,-6.8717 1.2494,-8.25495 z"
     id="quads_r"
     inkscape:label="quads_r" /><path
     style="fill:none;fill-opacity:1;fill-rule:evenodd;stroke:#000000;stroke-width:0.264583;stroke-linecap:square;stroke-linejoin:round;stroke-dasharray:none;stroke-opacity:1"
     d="m 125.47536,130.24985 -1.56175,0.58008 -0.89243,0.49083 -0.49083,0.58008 -0.4016,0.35697 0.0893,0.58008 0.0892,0.46852 0.11155,0.46853 0.31235,0.6247 0.17849,0.35697 -0.0892,0.17849 -0.26773,0.2231 -0.31235,0.15618 -0.24542,0.17848 -0.53546,0.31235 -0.26772,0.35697 0.26772,0.78088 0.26773,0.84781 0.15618,0.73625 0.31235,0.8478 0.40159,0.55777 0.2008,0.40159 0.22352,0.0725 0.44173,0.7257 -0.50483,-0.41018 -0.37863,-0.34707 -0.37862,-0.25242 -0.22087,0.22087 v 0.8519 l -0.0947,0.97812 0.0316,0.94656 0.25241,0.31552 0.15776,0.31552 0.34708,0.56794 0.12621,0.31552 0.47328,0.88346 0.22086,0.28397 0.44173,0.50483 0.0947,0.28397 -0.25242,-0.18931 -0.37862,-0.41018 -0.31553,-0.37862 -0.31552,-0.22087 -0.0947,0.41018 -0.0947,0.37862 0.22087,0.94657 0.0631,0.8519 0.18931,1.3883 0.25242,1.04121 0.18931,0.37863 0.22087,0.7888 0.28396,0.53639 0.41018,0.44173 0.31552,0.47328 -0.0315,0.25242 -0.28397,-0.15777 -0.31552,-0.44173 -0.47328,-0.56793 -0.31552,-0.28397 -0.50483,-0.50484 -0.22087,0.28397 -0.29494,1.042 -0.0223,0.55777 -0.15618,1.13784 v 0.89243 l -0.0669,1.42788 0.0223,0.73626 v 0.78087 l 0.26772,0.91474 0.37929,1.0486 0.29003,0.53546 1.33865,2.20876 0.40159,0.44621 0.82549,0.78088 0.53546,1.11553 0.84781,1.33864 0.80318,0.89243 0.89243,0.93705 0.6247,-0.0892 0.93705,-0.35697 0.71394,-1.651 0.13387,-1.29401 v -1.51713 l -0.0893,-1.47251 -0.0892,-2.0972 0.22311,-1.33865 0.22311,-0.93705 -0.0446,-1.33864 -0.31235,-0.58007 -0.40159,-1.11554 -0.17849,-0.98167 0.17849,-0.58008 c 0,0 -0.13386,-1.60637 -0.13386,-1.78485 0,-0.17849 0.35697,-2.09721 0.35697,-2.09721 l -1.33864,-3.39123 0.17848,-1.02629 0.49084,-1.47251 0.53545,-1.60637 -0.0446,-0.66931 -1.2494,-1.29403 -0.40159,-0.93704 0.13387,-1.29403 0.49083,-1.29402 0.6247,-1.11553 0.93705,-1.2494 0.22311,-2.18645 -0.22311,-0.53545 -0.84781,-0.0446 h -2.18645 l -0.75856,-0.17848 -0.75856,-0.17849 -0.44622,-0.2231 z"
     id="obliques_l"
     inkscape:label="obliques_l" /><path
     style="fill:none;fill-opacity:1;fill-rule:evenodd;stroke:#000000;stroke-width:0.264583;stroke-linecap:square;stroke-linejoin:round;stroke-dasharray:none;stroke-opacity:1"
     d="m 155.59497,129.75902 1.56175,0.58008 0.89243,0.49083 0.49083,0.58008 0.4016,0.35697 -0.0893,0.58008 -0.0892,0.46852 -0.11155,0.46853 -0.31235,0.6247 -0.17849,0.35697 0.0892,0.17849 0.26773,0.2231 0.31235,0.15618 0.24542,0.17848 0.53546,0.31235 0.26772,0.35697 -0.26772,0.78088 -0.26773,0.84781 -0.15618,0.73625 -0.31235,0.8478 -0.40159,0.55777 -0.2008,0.40159 -0.22352,0.0725 -0.44173,0.7257 0.50483,-0.41018 0.37863,-0.34707 0.37862,-0.25242 0.22087,0.22087 v 0.8519 l 0.0947,0.97812 -0.0316,0.94656 -0.25241,0.31552 -0.15776,0.31552 -0.34708,0.56794 -0.12621,0.31552 -0.47328,0.88346 -0.22086,0.28397 -0.44173,0.50483 -0.0947,0.28397 0.25242,-0.18931 0.37862,-0.41018 0.31553,-0.37862 0.31552,-0.22087 0.0947,0.41018 0.0947,0.37862 -0.22087,0.94657 -0.0631,0.8519 -0.18931,1.3883 -0.25242,1.04121 -0.18931,0.37863 -0.22087,0.7888 -0.28396,0.53639 -0.41018,0.44173 -0.31552,0.47328 0.0315,0.25242 0.28397,-0.15777 0.31552,-0.44173 0.47328,-0.56793 0.31552,-0.28397 0.50483,-0.50484 0.22087,0.28397 0.29494,1.042 0.0223,0.55777 0.15618,1.13784 v 0.89243 l 0.0669,1.42788 -0.0223,0.73626 v 0.78087 l -0.26772,0.91474 -0.37929,1.0486 -0.29003,0.53546 -1.33865,2.20876 -0.40159,0.44621 -0.82549,0.78088 -0.53546,1.11553 -0.84781,1.33864 -0.80318,0.89243 -0.89243,0.93705 -0.6247,-0.0892 -0.93705,-0.35697 -0.71394,-1.651 -0.13387,-1.29401 v -1.51713 l 0.0893,-1.47251 0.0892,-2.0972 -0.22311,-1.33865 -0.22311,-0.93705 0.0446,-1.33864 0.31235,-0.58007 0.40159,-1.11554 0.17849,-0.98167 -0.17849,-0.58008 c 0,0 0.13386,-1.60637 0.13386,-1.78485 0,-0.17849 -0.35697,-2.09721 -0.35697,-2.09721 l 1.33864,-3.39123 -0.17848,-1.02629 -0.49084,-1.47251 -0.53545,-1.60637 0.0446,-0.66931 1.2494,-1.29403 0.40159,-0.93704 -0.13387,-1.29403 -0.49083,-1.29402 -0.6247,-1.11553 -0.93705,-1.2494 -0.22311,-2.18645 0.22311,-0.53545 0.84781,-0.0446 h 2.18645 l 0.75856,-0.17848 0.75856,-0.17849 0.44622,-0.2231 z"
     id="obliques_r"
     inkscape:label="obliques_r" /><path
     style="fill:none;fill-opacity:1;fill-rule:evenodd;stroke:#000000;stroke-width:0.264583;stroke-linecap:square;stroke-linejoin:round;stroke-dasharray:none;stroke-opacity:1"
     d="m 121.53865,235.18928 -1.45139,6.49973 -0.56794,3.40763 -0.31552,5.23764 1.70381,8.51907 1.26208,6.18422 1.5145,3.91244 1.70382,6.56283 0.31552,3.02901 0.0631,2.33487 0.12621,2.77656 0.0631,1.4514 v 0.37864 l 1.83002,-0.56795 1.07278,-0.12621 2.08243,0.63106 0.69415,0.18931 1.26208,0.69413 1.07277,1.07278 0.25242,-2.27176 0.25242,-3.59693 -1.07277,-2.77659 -0.25242,-2.9659 -0.25242,-2.90277 -0.0631,-3.15521 0.37863,-4.98526 0.63104,-3.2183 1.38829,-5.80558 0.69414,-4.41729 -0.25241,-5.36386 -0.56794,-3.15521 -0.63104,-2.71348 -0.18932,-2.01933 -0.0631,-2.01934 -0.18931,-0.69414 -1.4514,2.77658 -0.82035,1.32519 -0.75725,1.32519 -0.88346,1.5776 -0.18931,1.89313 -0.50484,1.5776 v 1.32519 l -0.25241,2.83969 0.12621,1.95623 v 2.01933 6.058 l 0.18931,3.59694 0.75725,6.49974 0.75725,3.72313 1.26208,6.56283 0.69415,2.33487 -0.0631,1.4514 -2.96589,-2.14556 -1.07277,-2.52415 -1.70382,-9.97048 -2.58727,-16.21776 -1.19898,-10.66461 -0.82035,-6.18421 z"
     id="calves_l"
     inkscape:label="calves_l" /><path
     style="fill:none;fill-opacity:1;fill-rule:evenodd;stroke:#000000;stroke-width:0.264583;stroke-linecap:square;stroke-linejoin:round;stroke-dasharray:none;stroke-opacity:1"
     d="m 159.76447,235.22887 1.45139,6.49973 0.56794,3.40763 0.31552,5.23764 -1.70381,8.51907 -1.26208,6.18422 -1.5145,3.91244 -1.70382,6.56283 -0.31552,3.02901 -0.0631,2.33487 -0.12621,2.77656 -0.0631,1.4514 v 0.37864 l -1.83002,-0.56795 -1.07278,-0.12621 -2.08243,0.63106 -0.69415,0.18931 -1.26208,0.69413 -1.07277,1.07278 -0.25242,-2.27176 -0.25242,-3.59693 1.07277,-2.77659 0.25242,-2.9659 0.25242,-2.90277 0.0631,-3.15521 -0.37863,-4.98526 -0.63104,-3.2183 -1.38829,-5.80558 -0.69414,-4.41729 0.25241,-5.36386 0.56794,-3.15521 0.63104,-2.71348 0.18932,-2.01933 0.0631,-2.01934 0.18931,-0.69414 1.4514,2.77658 0.82035,1.32519 0.75725,1.32519 0.88346,1.5776 0.18931,1.89313 0.50484,1.5776 v 1.32519 l 0.25241,2.83969 -0.12621,1.95623 v 2.01933 6.058 l -0.18931,3.59694 -0.75725,6.49974 -0.75725,3.72313 -1.26208,6.56283 -0.69415,2.33487 0.0631,1.4514 2.96589,-2.14556 1.07277,-2.52415 1.70382,-9.97048 2.58727,-16.21776 1.19898,-10.66461 0.82035,-6.18421 z"
     id="calves_r"
     inkscape:label="calves_r" /><path
     style="fill:none;fill-opacity:1;fill-rule:evenodd;stroke:#000000;stroke-width:0.264583;stroke-linecap:square;stroke-linejoin:round;stroke-dasharray:none;stroke-opacity:1"
     d="m 143.50239,107.44832 21.50752,8.38882 -0.26773,0.53546 -5.80078,-1.2494 -4.19442,-0.26773 -3.56971,0.0892 -3.12349,0.44622 -1.69562,0.98167 -2.58804,0.44621 -1.16015,0.89243 -1.2494,0.53546 0.17848,-5.44381 0.44622,-2.40956 0.53545,-1.96334 z"
     id="upper_chest_r"
     inkscape:label="upper_chest_l" /></svg>
